<?xml version="1.0" standalone="no"?><!DOCTYPE svg PUBLIC "-//W3C//DTD SVG 1.1//EN" "http://www.w3.org/Graphics/SVG/1.1/DTD/svg11.dtd"><svg t="1686646825010" class="icon" viewBox="0 0 1024 1024" version="1.1" xmlns="http://www.w3.org/2000/svg" p-id="5960" xmlns:xlink="http://www.w3.org/1999/xlink" width="128" height="128"><path d="M597.333333 896v85.333333h-170.666666v-85.333333h170.666666z m298.666667-170.666667v85.333334H133.610667l44.224-66.346667a211.370667 211.370667 0 0 0 35.349333-109.44l0.149333-7.808V426.666667c0-150.464 111.253333-274.944 256-295.637334V64h85.333334v67.029333c142.485333 20.394667 252.522667 141.312 255.914666 288.597334L810.666667 426.666667v213.333333h-85.333334V426.666667c0-113.834667-89.152-206.826667-201.429333-213.013334l-5.930667-0.234666L512 213.333333c-115.84 0-210.090667 92.309333-213.248 207.36L298.666667 426.666667v200.405333c0 28.650667-4.138667 56.96-12.16 84.138667l-3.2 10.133333-1.429334 3.989333H896z" fill="#dc4330" p-id="5961"></path></svg>